 http://lookpic.com/O/i2/479/jp0rbhFM.jpeg


Bullet to the Head- Camrip
ENCODED BY: EVILDEEDS74

Format : x264
Format/Info : Matroska
File size : 640 MiB 
Duration : 1h 26mn 
Overall bit rate : 1 039 Kbps 
Writing library : VirtualDub build 32842/release 

Video 
ID : 0 
Format : AVC 
Format/Info : Advanced Video Codec 
Format profile : High@L4.1 
Format settings, CABAC : Yes 
Format settings, ReFrames : 4 frames 
Codec ID : AVC1 
Duration : 1h 26mn 
Bit rate : 900 Kbps 
Width : 600 pixels 
Height : 296 pixels 
Display aspect ratio : 2.027 
Frame rate : 29.970 fps 
Color space : YUV 
Chroma subsampling : 4:2:0 
Bit depth : 8 bits 
Scan type : Progressive 
Bits/(Pixel*Frame) : 0.169 
Stream size : 554 MiB (87%) 
Writing library : x264 core 125 

Audio 
ID : 1 
Format : MPEG Audio 
Format version : Version 1 
Format profile : Layer 3 
Mode : Joint stereo 
Mode extension : MS Stereo 
Codec ID : 55 
Codec ID/Hint : MP3 
Duration : 1h 26mn 
Bit rate mode : Constant 
Bit rate : 128 Kbps 
Channel(s) : 2 channels 
Sampling rate : 48.0 KHz 
Compression mode : Lossy 
Stream size : 78.9 MiB (12%) 
Alignment : Split accross interleaves 
Interleave, duration : 33 ms (1.00 video frame) 
Interleave, preload duration : 500 ms 
Writing library : LAME3.98.4 
 
http://i.imgbox.com/abfhXjI9.jpg 
http://i.imgbox.com/acx9AlSi.jpg 
http://i.imgbox.com/abrz1lhy.jpg 
http://i.imgbox.com/adbJQGUb.jpg 
http://i.imgbox.com/acr06aIG.jpg